<?xml version="1.0" encoding="UTF-8"?>
<svg id="Layer_2" data-name="Layer 2" xmlns="http://www.w3.org/2000/svg" viewBox="0 0 11759.34 1319.63">
  <defs>
    <style>
      .cls-1 {
        fill: #247CF4;
      }
    </style>
  </defs>
  <g id="Layer_1-2" data-name="Layer 1">
    <g>
      <path class="cls-1" d="m7933.18.1c73.56,10.9,147.42-1.42,222.35,13.79,149.8,30.41,223.34,112.38,195.24,259.23-21.54,112.53-62.51,221.28-93.11,332.19-7.44,26.95-23.09,32.48-47.42,32.33-101.43-.63-202.89-1.66-304.28.25-48.25.91-50.47-21.47-40.12-58.97,18.68-67.65,36.46-135.62,51.81-204.08,8.53-38.03-6.94-56.41-49.97-55.8-144.87,2.07-289.79,1.09-434.69.96-43.47-.04-70.31,14.59-82.23,62.07-24.45,97.34-52.46,194.07-85.11,288.95-18.59,54,3.04,58.23,47.3,58.05,280.14-1.16,560.31,1.01,840.42-2.05,57.38-.63,72.27,14.22,53.68,67.24-59.98,171.08-93.55,350.36-160.92,519.15-129.49-2.64-259.01-5.25-388.54-7.86,19.17-72.57,38.34-145.14,57.51-217.71q30.74-64.98-.05-83.27c-14.46-.16-28.93-.31-43.39-.47-9.51.02-19.02.05-28.53.08-155.47-.76-311.11-13.32-466.25,6.84.03-.05-4.65-.34-4.65-.34l-1,4.88c-26.15,94.29-52.29,188.58-78.43,282.82-134.74,25.15-270.5,8.29-405.82,9.67,42.88-155.49,85.76-310.98,128.64-466.47,55.13-188.03,107.23-376.83,169.04-563.06,42.54-128.17,109.94-225.11,237.91-274.77,33.69-1.21,67.38-2.43,101.07-3.64,33.99-.03,67.97-.06,101.96-.08,135.22,0,270.45-.02,405.67-.03,33.97.03,67.94.07,101.9.1Z"/>
      <path class="cls-1" d="m6496.1,900.23c-118.05.19-236.12-.83-354.13,1.25-37.79.67-44.95-10.23-34.7-45.59,47.8-164.9,92.09-330.83,141.5-495.24,10.09-33.56-.39-39.43-26.74-39.49-166.23-.36-332.47.45-498.7-.48-34.94-.19-44.43,21.41-52.25,48.14-20.75,70.95-45.13,141.02-62.15,212.84-27.9,117.78-86.29,226.91-97.93,349.08-8.24,6.95-11.22,15.44-7.62,25.88-2.08,6.41-4.16,12.81-6.24,19.21-3.18,1.52-6.35,3.06-9.53,4.59,3.28,1.08,6.57,2.16,9.85,3.23,0,0,4.72,2.53,4.69,2.53,21.11,25.17,49.71,12.49,74.5,12.65,297.09,1.91,594.19,2.52,891.28,3.46-46.09,180.83-170.24,282.48-378.98,310.3-269.45-.34-538.92-.66-808.39-.98-163.62-27.65-237.82-136.84-195.4-295.64,41.27-154.48,95.57-305.91,128.74-461.94,16.9-79.48,44.83-153.79,66.83-230.72,59.57-208.3,207.07-320.76,422.66-320.72,252.41.05,504.82-.09,757.23,1.02,101.68.45,189.2,72.86,213.17,172.69-7.28,59.49,1.75,119.48-16.77,179.19-56.07,180.83-107.63,363.06-160.95,544.74Z"/>
      <path class="cls-1" d="m1365.37,1312.75c-10.89.07-21.77.13-32.65.19-8.63-.02-17.26-.02-25.9-.03-10.91.02-21.81.04-32.71.04-29.53-1.57-59.07-3.13-88.62-4.68,65.06-271.53,151.4-537.02,228.83-805.04,5.33-18.45,11.17-36.75,16.19-55.28,35.64-131.68,35.62-130.06-100.23-128.3-37.84.49-54.39,12.02-64.8,48.38-83.09,290.16-168.02,579.8-252.65,869.52-9.89,33.87-13.27,73.48-60.43,79.28-118.48-14.16-237.49-2.14-356.19-6.64,87-307.12,172.3-614.74,262.54-920.9,16.66-56.53,9.66-71.45-49.83-70.46-168.97,2.83-338.01.99-513.05.99,9.34-98.5,43.55-186.92,67.06-277.72,7.75-29.93,26.28-40.31,58.17-40.23,415.63,1.05,831.28-1.45,1246.89,2.01,146.67,1.22,235.2,120.79,203.71,263.46-46.85,212.32-113.6,419.19-175.19,627.49-40.62,137.36-77.37,275.86-115.84,413.83-71.75,1.35-143.52,2.72-215.28,4.08Z"/>
      <path class="cls-1" d="m11489.48,965.71c-7.12,24.79-14.23,49.59-21.32,74.39-6.28,21.94-12.54,43.89-18.78,65.85-3.22,11.26-6.42,22.53-9.62,33.8-.57-.01-1.15-.02-1.72-.04,3.29-11.27,6.58-22.54,9.88-33.8,6.43-21.95,12.89-43.9,19.38-65.83,7.34-24.81,14.73-49.6,22.18-74.37Z"/>
      <path class="cls-1" d="m8940.09,436.13c-48.04,160.58-95.67,321.29-144.56,481.61-7.23,23.71-9.33,46.24-3.57,69.91,11.94,17.12,30.09,11.55,46.01,11.59,153.23.4,306.46.51,459.69,0,18.19-.06,38.95,6.31,53.06-12.64,3.63-3.02,9.08-5.31,10.61-9.17q52.62-131.97,196.85-131.96c67.3,0,134.62,1.08,201.88-.51,34.51-.81,40.26,11.28,30.35,42.52-22.39,70.59-44.21,141.51-62.21,213.32-32.55,129.82-114.98,199.73-246.8,213.99-307.88-1.43-615.79-2.83-923.69-4.23-154.08-28.69-218.67-136.65-184.37-297,35.63-166.58,98.72-324.93,140.65-489.49,8.75-34.34,18.84-68.33,28.31-102.47,130.22-1.43,260.45-2.86,390.68-4.3,1.2,3.03,3.42,4.79,6.62,5.27-1.4,4.57-1.23,9.09.49,13.55Z"/>
      <path class="cls-1" d="m3641.99,1312.1c-179.53-29.22-236.46-141.18-185.58-316.42,20.91-72.02,34.56-149.29,54.13-223.26,30.64-115.79,54.41-234.34,113.4-340.9,26.59-12.96,55-12.56,83.71-12.69,97.8-.43,195.6-1.8,293.4-2.81,2,3.45,4.88,5.83,8.61,7.12-1.79,4.28-1.83,8.59-.16,12.91-40.76,138.86-81.66,277.69-122.19,416.62-12.88,44.14-44.47,84.77-26.15,134.97,11.84,17.18,30.02,11.71,45.89,11.74,155.5.33,311,.25,466.51-.16,15.92-.04,34.16,5.25,45.46-12.63,3.67-2.98,9.19-5.21,10.74-9.05q53.3-132.17,196.73-132.07c67.29.06,134.6,1.2,201.85-.37,33.1-.77,42.26,8.94,32.02,41.72-27.06,86.62-49.07,174.88-78.11,260.79-32.19,95.21-106.8,143.44-201.4,165.01-312.94-.18-625.89-.35-938.84-.53Z"/>
      <path class="cls-1" d="m2083.68,1293.11c18.22-100.45,45.38-199.58,85.16-292.43,51.1-119.27,12.41-220.77-30.76-329.18-87.1-218.72-167.18-440.22-253.25-668.79,147.47,0,286.81.49,426.15-.41,28.16-.18,35.27,15.51,43.05,38.16,82.28,239.51,166.06,478.52,248.35,718.03,16.12,46.93,10.57,94.42-3.64,141.94-40.53,135.48-79.41,271.46-118.93,407.23-117.34.89-234.69,1.82-352.03,2.65-16.9.12-33.96.19-44.1-17.2Z"/>
      <path class="cls-1" d="m9513.88,465.57q34.76-144.9-113.64-144.91c-255.84-.02-511.69-1.26-767.51.95-51.27.44-62.26-11.66-42.52-59.29,48.37-116.67,127.29-202.2,243.56-253.3,21.38-9.4,42.6-5.82,63.83-5.86,311.35-.48,622.7-.55,934.06-.46,124.24.04,183.16,60.42,158.25,179.55-20.45,97.77-42.14,196.93-86.12,288.48-129.96-1.73-259.93-3.45-389.9-5.16Z"/>
      <path class="cls-1" d="m4643.06,472.72c-15.71.07-31.42.15-47.13.21-4.35-2.23-8.71-4.45-13.07-6.67,1.93-18.92.42-39.01,6.38-56.56,30.29-89.22,30.96-88.99-65.62-88.99-272.52,0-545.06-1.54-817.55,1.24-57.41.58-64.48-14.62-44.81-64.1C3728.47,88.77,3851.64,2.61,4032.05,2.57c289.4-.06,578.81-.2,868.21.06,123.77.11,186.91,70.72,159.11,187.81-22.52,94.84-56.59,186.95-85.54,280.25-4.6-1.58-8.86-.94-12.79,1.93-10.68-.12-21.35-.25-32.02-.38-95.33-6.35-190.65-6.93-285.97.48Z"/>
      <path class="cls-1" d="m639.9,458.26c-25.68,87.64-48.59,176.09-74.06,263.8-52.39,180.39-105.68,360.53-158.74,540.73-4.74,16.12-10.45,31.97-15.69,47.93l-391.41-3.41,115.02-412.68.03-.11c7.93-25.2,15.6-50.48,22.77-75.89,6.8-24.12,12.89-48.43,18.68-72.82l.02-.07,74.79-268.31h0c2.17-5.28,4.42-10.53,6.73-15.76,14.78-33.41,28.67-51.01,66.82-50.35,100.03,1.75,200.13,1.92,300.14-.11,38.92-.79,44.82,13.18,34.9,47.05Z"/>
      <path class="cls-1" d="m3430.74,2.6c-243.31,242.38-471.97,469.39-699.38,697.64-29.91,30.02-41.89,21.08-53.8-12.78-29.45-83.77-59.28-167.42-90.38-250.58-12.13-32.42.13-54.06,22.02-76.79,103.59-107.54,206.01-216.21,309.07-324.27,16.24-17.03,30.27-34.34,59.53-33.99,144.03,1.7,288.09.77,452.93.77Z"/>
      <path class="cls-1" d="m10277.38,351.92c29.69-97.8,61.07-195.13,88.27-293.61,11.32-40.97,28.82-58.71,74.37-56.91,96.01,3.8,192.31,2.51,288.43.47,43.88-.93,52.56,9.88,38.93,53.85-34.56,111.48-62.89,224.88-93.71,337.52-116.72,1.3-233.45,1.83-350.15,4.38-34.07.75-47.97-13.12-46.16-45.7Z"/>
      <path class="cls-1" d="m11468.16,1040.1c-6.28,21.94-12.54,43.89-18.78,65.85-3.22,11.26-6.42,22.53-9.62,33.8-.57-.01-1.15-.02-1.72-.04,3.29-11.27,6.58-22.54,9.88-33.8,6.43-21.95,12.89-43.9,19.38-65.83l.86.02Z"/>
      <path class="cls-1" d="m11489.48,965.71c-7.12,24.79-14.23,49.59-21.32,74.39-6.28,21.94-12.54,43.89-18.78,65.85-3.22,11.26-6.42,22.53-9.62,33.8-.57-.01-1.15-.02-1.72-.04,3.29-11.27,6.58-22.54,9.88-33.8,6.43-21.95,12.89-43.9,19.38-65.83,7.34-24.81,14.73-49.6,22.18-74.37Z"/>
      <path class="cls-1" d="m11489.48,965.71c-7.12,24.79-14.23,49.59-21.32,74.39-6.28,21.94-12.54,43.89-18.78,65.85-.49-.01-.97-.02-1.46-.04,6.43-21.95,12.89-43.9,19.38-65.83,7.34-24.81,14.73-49.6,22.18-74.37Z"/>
      <path class="cls-1" d="m10427.13,1252.39c-.02.13-.04.26-.06.39l-.11.24.17-.63Z"/>
      <path class="cls-1" d="m10530.41,868.63c-1.77,7.62-3.49,15.29-6,22.31l6-22.31Z"/>
      <path class="cls-1" d="m11117.37,851.06c-.59,2.72-1.37,5.67-2.33,8.87-1,3.32-1.99,6.63-2.98,9.95l5.09-18.88.22.06Z"/>
      <path class="cls-1" d="m11752.75,65.67c-71.79,238.35-140.86,477.51-210.28,716.57-3.83,13.19-7.65,26.37-11.47,39.56-3.48,12-6.95,24-10.42,36-3.26,11.26-6.51,22.53-9.76,33.8-7.12,24.64-14.21,49.28-21.29,73.93-.02.06-.04.12-.05.18-7.45,24.77-14.84,49.56-22.18,74.37-6.49,21.93-12.95,43.88-19.38,65.83-3.3,11.26-6.59,22.53-9.88,33.8.57.02,1.15.03,1.72.04-12.52,44.02-24.98,88.06-37.39,132.11-.95,3.37-1.82,6.73-2.73,10.02,0,.03,0,.07-.03.1-2.43,8.91-5.07,17.3-9.94,23.99-4.82,6.63-11.84,11.58-23.03,13.66-29.26-.7-58.52-1.4-87.79-2.1-92.05-2.2-184.12-4.38-276.19-6.56l-8.82-2.38,34.7-128.77,48.59-180.31v-.02s0-.01,0-.01l15.73-58.36v-.03s19.19-71.2,19.19-71.2h0c.99-3.33,1.98-6.64,2.98-9.96.96-3.2,1.74-6.15,2.33-8.87,5.62-25.76-5.23-30.57-29.07-30.62-25.85-.05-51.68-.08-77.53-.09h-37.78v-.16c-128.68.05-257.37.09-386.05.14-33.58-3.15-45.33,11.59-51.78,30.67-1.88,5.55-3.31,11.48-4.7,17.43l-.05.2-6,22.31v.05s-7.01,25.98-7.01,25.98h0s-6.69,24.89-6.69,24.89l-8.67,32.2-15.04,55.9-59.87,222.43-.17.63c-14.39,52.54-48.28,66.67-101.76,63.51-86.67-5.13-173.86-1.37-260.83-1.56-25.79-.05-55.74,6.74-59.78-32.97,73.82-210.4,128.73-426.4,189.63-640.6,9.71-34.15,26.09-65.33,33.19-101.31,8.6-43.56,52.16-40.66,89.26-40.6,275.11.45,550.32-3.47,825.28,2.88,69.12,1.6,97.59-32.98,107.21-81.1,23.91-119.57,83.8-228.95,94.01-352.26,3.04-36.64,23.72-64.27,71.86-62.65,98.83,3.33,197.91,2.99,296.77.16,50.62-1.45,54.24,15.03,40.95,59.15Z"/>
      <path class="cls-1" d="m10535.16,851l-4.7,17.43c1.39-5.95,2.82-11.88,4.7-17.43Z"/>
      <path class="cls-1" d="m156.5,745.81c-5.79,24.39-11.88,48.7-18.68,72.82-7.17,25.41-14.84,50.69-22.77,75.89l41.45-148.71Z"/>
    </g>
  </g>
</svg>