<svg width="174" height="174" viewBox="0 0 174 174" fill="none" xmlns="http://www.w3.org/2000/svg">
<g filter="url(#filter0_d_144_60)">
<rect x="40" y="22" width="94" height="94" rx="47" fill="#B1D2FF"/>
<path d="M92.7147 75.6747L94.6195 79.7747C94.6195 79.7747 103.191 81.5951 103.191 85.9249C103.191 88.9999 99.3813 89 99.3813 89H89.2227L84.2227 86.2222" stroke="#0062E8" stroke-width="3" stroke-linecap="round" stroke-linejoin="round"/>
<path d="M81.2867 75.6747L79.382 79.7747C79.382 79.7747 70.8105 81.5951 70.8105 85.9249C70.8105 88.9999 74.6201 89 74.6201 89H79.2232L84.2233 86.2222L90.3344 82.3333" stroke="#0062E8" stroke-width="3" stroke-linecap="round" stroke-linejoin="round"/>
<path d="M67 77.7244C67 77.7244 71.7619 76.6995 74.619 75.6744C77.4762 61.3241 86.0476 62.3491 87 62.3491C87.9524 62.3491 96.5238 61.3241 99.3809 75.6744C102.238 76.6995 107 77.7244 107 77.7244" stroke="#0062E8" stroke-width="3" stroke-linecap="round" stroke-linejoin="round"/>
<path d="M86.9991 57.8888C89.4538 57.8888 91.4436 55.899 91.4436 53.4444C91.4436 50.9898 89.4538 49 86.9991 49C84.5445 49 82.5547 50.9898 82.5547 53.4444C82.5547 55.899 84.5445 57.8888 86.9991 57.8888Z" stroke="#0062E8" stroke-width="3" stroke-linecap="round" stroke-linejoin="round"/>
</g>
<defs>
<filter id="filter0_d_144_60" x="0" y="0" width="174" height="174" filterUnits="userSpaceOnUse" color-interpolation-filters="sRGB">
<feFlood flood-opacity="0" result="BackgroundImageFix"/>
<feColorMatrix in="SourceAlpha" type="matrix" values="0 0 0 0 0 0 0 0 0 0 0 0 0 0 0 0 0 0 127 0" result="hardAlpha"/>
<feOffset dy="18"/>
<feGaussianBlur stdDeviation="20"/>
<feColorMatrix type="matrix" values="0 0 0 0 0.439216 0 0 0 0 0.564706 0 0 0 0 0.690196 0 0 0 0.12 0"/>
<feBlend mode="normal" in2="BackgroundImageFix" result="effect1_dropShadow_144_60"/>
<feBlend mode="normal" in="SourceGraphic" in2="effect1_dropShadow_144_60" result="shape"/>
</filter>
</defs>
</svg>
