<svg width="174" height="174" viewBox="0 0 174 174" fill="none" xmlns="http://www.w3.org/2000/svg">
<g filter="url(#filter0_d_144_73)">
<rect x="40" y="22" width="94" height="94" rx="47" fill="#B1D2FF"/>
<g clip-path="url(#clip0_144_73)">
<path d="M96.4639 51.8125C90.124 51.8125 86.999 58.0625 86.999 58.0625C86.999 58.0625 83.874 51.8125 77.5342 51.8125C72.3819 51.8125 68.3018 56.123 68.249 61.2666C68.1416 71.9434 76.7188 79.5361 86.1201 85.917C86.3793 86.0933 86.6856 86.1876 86.999 86.1876C87.3125 86.1876 87.6188 86.0933 87.878 85.917C97.2783 79.5361 105.855 71.9434 105.749 61.2666C105.696 56.123 101.616 51.8125 96.4639 51.8125Z" stroke="#0062E8" stroke-width="3" stroke-linecap="round" stroke-linejoin="round"/>
<path d="M66.6875 69H77.625L82.3125 59.625L87 75.25L91.6875 65.875L94.8125 72.125H107.312" stroke="#0062E8" stroke-width="3" stroke-linecap="round" stroke-linejoin="round"/>
</g>
</g>
<defs>
<filter id="filter0_d_144_73" x="0" y="0" width="174" height="174" filterUnits="userSpaceOnUse" color-interpolation-filters="sRGB">
<feFlood flood-opacity="0" result="BackgroundImageFix"/>
<feColorMatrix in="SourceAlpha" type="matrix" values="0 0 0 0 0 0 0 0 0 0 0 0 0 0 0 0 0 0 127 0" result="hardAlpha"/>
<feOffset dy="18"/>
<feGaussianBlur stdDeviation="20"/>
<feColorMatrix type="matrix" values="0 0 0 0 0.439216 0 0 0 0 0.564706 0 0 0 0 0.690196 0 0 0 0.12 0"/>
<feBlend mode="normal" in2="BackgroundImageFix" result="effect1_dropShadow_144_73"/>
<feBlend mode="normal" in="SourceGraphic" in2="effect1_dropShadow_144_73" result="shape"/>
</filter>
<clipPath id="clip0_144_73">
<rect width="80" height="80" fill="white" transform="translate(47 29)"/>
</clipPath>
</defs>
</svg>
