<svg width="30" height="31" viewBox="0 0 30 31" fill="none" xmlns="http://www.w3.org/2000/svg">
<path d="M15 28C21.9036 28 27.5 22.4036 27.5 15.5C27.5 8.59644 21.9036 3 15 3C8.09644 3 2.5 8.59644 2.5 15.5C2.5 22.4036 8.09644 28 15 28Z" stroke="black" stroke-width="2.5"/>
<path d="M19.3164 15.9935C19.127 16.7769 18.2321 17.3305 16.4424 18.4377C14.7121 19.508 13.8471 20.0432 13.1499 19.8281C12.8616 19.7391 12.5991 19.5702 12.3873 19.3375C11.875 18.7747 11.875 17.6831 11.875 15.5C11.875 13.3169 11.875 12.2252 12.3873 11.6624C12.5991 11.4298 12.8616 11.2608 13.1499 11.1719C13.8471 10.9568 14.7121 11.492 16.4424 12.5623C18.2321 13.6695 19.127 14.2231 19.3164 15.0065C19.3945 15.3299 19.3945 15.6701 19.3164 15.9935Z" stroke="black" stroke-width="2.5" stroke-linejoin="round"/>
</svg>
