<svg width="174" height="174" viewBox="0 0 174 174" fill="none" xmlns="http://www.w3.org/2000/svg">
<g filter="url(#filter0_d_144_73)">
<rect x="40" y="22" width="94" height="94" rx="47" fill="#2D2D2D"/>
<path d="M101.517 81.15L95.85 75.5C97.6783 73.1708 98.6704 70.2944 98.6667 67.3333C98.6667 64.6963 97.8847 62.1184 96.4196 59.9257C94.9545 57.7331 92.8721 56.0241 90.4358 55.0149C87.9994 54.0058 85.3185 53.7417 82.7321 54.2562C80.1457 54.7707 77.7699 56.0405 75.9052 57.9052C74.0405 59.7699 72.7707 62.1457 72.2562 64.7321C71.7417 67.3185 72.0058 69.9994 73.0149 72.4358C74.0241 74.8721 75.7331 76.9545 77.9257 78.4196C80.1184 79.8847 82.6963 80.6667 85.3333 80.6667C88.2944 80.6704 91.1708 79.6783 93.5 77.85L99.15 83.5167C99.3049 83.6729 99.4893 83.7969 99.6924 83.8815C99.8955 83.9661 100.113 84.0097 100.333 84.0097C100.553 84.0097 100.771 83.9661 100.974 83.8815C101.177 83.7969 101.362 83.6729 101.517 83.5167C101.673 83.3617 101.797 83.1774 101.881 82.9743C101.966 82.7712 102.01 82.5534 102.01 82.3333C102.01 82.1133 101.966 81.8955 101.881 81.6924C101.797 81.4893 101.673 81.3049 101.517 81.15ZM75.3333 67.3333C75.3333 65.3555 75.9198 63.4221 77.0186 61.7776C78.1175 60.1331 79.6792 58.8514 81.5065 58.0945C83.3338 57.3377 85.3444 57.1396 87.2842 57.5255C89.2241 57.9113 91.0059 58.8637 92.4044 60.2623C93.8029 61.6608 94.7553 63.4426 95.1412 65.3824C95.527 67.3222 95.329 69.3329 94.5721 71.1602C93.8153 72.9874 92.5335 74.5492 90.889 75.648C89.2446 76.7468 87.3112 77.3333 85.3333 77.3333C82.6812 77.3333 80.1376 76.2798 78.2623 74.4044C76.3869 72.529 75.3333 69.9855 75.3333 67.3333Z" fill="white"/>
</g>
<defs>
<filter id="filter0_d_144_73" x="0" y="0" width="174" height="174" filterUnits="userSpaceOnUse" color-interpolation-filters="sRGB">
<feFlood flood-opacity="0" result="BackgroundImageFix"/>
<feColorMatrix in="SourceAlpha" type="matrix" values="0 0 0 0 0 0 0 0 0 0 0 0 0 0 0 0 0 0 127 0" result="hardAlpha"/>
<feOffset dy="18"/>
<feGaussianBlur stdDeviation="20"/>
<feColorMatrix type="matrix" values="0 0 0 0 0.439216 0 0 0 0 0.564706 0 0 0 0 0.690196 0 0 0 0.12 0"/>
<feBlend mode="normal" in2="BackgroundImageFix" result="effect1_dropShadow_144_73"/>
<feBlend mode="normal" in="SourceGraphic" in2="effect1_dropShadow_144_73" result="shape"/>
</filter>
</defs>
</svg>
